<svg width="128" height="127" viewBox="0 0 128 127" fill="none" xmlns="http://www.w3.org/2000/svg">
<g filter="url(#filter0_d_1_236)">
<circle cx="64" cy="53" r="20" fill="#0A66C2"/>
</g>
<g clip-path="url(#clip0_1_236)">
<path d="M67.4998 53.0005H60.8998V55.3005H67.4998V53.0005ZM70.5592 47.574L67.1939 44.0521C67.0392 43.8904 66.8295 43.8005 66.6095 43.8005H66.3998V48.4005H70.7998V48.1813C70.7998 47.9549 70.7139 47.7357 70.5592 47.574ZM65.2998 48.688V43.8005H58.4248C57.9676 43.8005 57.5998 44.1851 57.5998 44.663V61.338C57.5998 61.816 57.9676 62.2005 58.4248 62.2005H69.9748C70.432 62.2005 70.7998 61.816 70.7998 61.338V49.5505H66.1248C65.671 49.5505 65.2998 49.1624 65.2998 48.688ZM59.7998 46.388C59.7998 46.2292 59.9229 46.1005 60.0748 46.1005H62.8248C62.9767 46.1005 63.0998 46.2292 63.0998 46.388V46.963C63.0998 47.1219 62.9767 47.2505 62.8248 47.2505H60.0748C59.9229 47.2505 59.7998 47.1219 59.7998 46.963V46.388ZM59.7998 48.688C59.7998 48.5292 59.9229 48.4005 60.0748 48.4005H62.8248C62.9767 48.4005 63.0998 48.5292 63.0998 48.688V49.263C63.0998 49.4219 62.9767 49.5505 62.8248 49.5505H60.0748C59.9229 49.5505 59.7998 49.4219 59.7998 49.263V48.688ZM68.5998 59.613C68.5998 59.7719 68.4767 59.9005 68.3248 59.9005H65.5748C65.4229 59.9005 65.2998 59.7719 65.2998 59.613V59.038C65.2998 58.8792 65.4229 58.7505 65.5748 58.7505H68.3248C68.4767 58.7505 68.5998 58.8792 68.5998 59.038V59.613ZM68.5998 52.4255V55.8755C68.5998 56.1932 68.3537 56.4505 68.0498 56.4505H60.3498C60.0459 56.4505 59.7998 56.1932 59.7998 55.8755V52.4255C59.7998 52.1078 60.0459 51.8505 60.3498 51.8505H68.0498C68.3537 51.8505 68.5998 52.1078 68.5998 52.4255Z" fill="white"/>
</g>
<defs>
<filter id="filter0_d_1_236" x="0.860939" y="0.645704" width="126.278" height="126.278" filterUnits="userSpaceOnUse" color-interpolation-filters="sRGB">
<feFlood flood-opacity="0" result="BackgroundImageFix"/>
<feColorMatrix in="SourceAlpha" type="matrix" values="0 0 0 0 0 0 0 0 0 0 0 0 0 0 0 0 0 0 127 0" result="hardAlpha"/>
<feOffset dy="10.7848"/>
<feGaussianBlur stdDeviation="21.5695"/>
<feColorMatrix type="matrix" values="0 0 0 0 0.212 0 0 0 0 0.238778 0 0 0 0 0.533333 0 0 0 0.06 0"/>
<feBlend mode="normal" in2="BackgroundImageFix" result="effect1_dropShadow_1_236"/>
<feBlend mode="normal" in="SourceGraphic" in2="effect1_dropShadow_1_236" result="shape"/>
</filter>
<clipPath id="clip0_1_236">
<rect width="13.2" height="18.4" fill="white" transform="translate(57.5996 43.8008)"/>
</clipPath>
</defs>
</svg>
