<svg width="19" height="23" viewBox="0 0 19 23" fill="none" xmlns="http://www.w3.org/2000/svg">
<path d="M18.2083 3.53846H14.25V2.65385C14.25 1.95 13.9998 1.27499 13.5544 0.777294C13.109 0.279601 12.5049 0 11.875 0H7.125C6.49511 0 5.89102 0.279601 5.44562 0.777294C5.00022 1.27499 4.75 1.95 4.75 2.65385V3.53846H0.791667C0.581704 3.53846 0.38034 3.63166 0.231874 3.79756C0.0834077 3.96346 0 4.18846 0 4.42308C0 4.65769 0.0834077 4.8827 0.231874 5.04859C0.38034 5.21449 0.581704 5.30769 0.791667 5.30769H1.58333V21.2308C1.58333 21.7 1.75015 22.15 2.04708 22.4818C2.34401 22.8136 2.74674 23 3.16667 23H15.8333C16.2533 23 16.656 22.8136 16.9529 22.4818C17.2499 22.15 17.4167 21.7 17.4167 21.2308V5.30769H18.2083C18.4183 5.30769 18.6197 5.21449 18.7681 5.04859C18.9166 4.8827 19 4.65769 19 4.42308C19 4.18846 18.9166 3.96346 18.7681 3.79756C18.6197 3.63166 18.4183 3.53846 18.2083 3.53846ZM6.33333 2.65385C6.33333 2.41923 6.41674 2.19423 6.56521 2.02833C6.71367 1.86243 6.91504 1.76923 7.125 1.76923H11.875C12.085 1.76923 12.2863 1.86243 12.4348 2.02833C12.5833 2.19423 12.6667 2.41923 12.6667 2.65385V3.53846H6.33333V2.65385ZM15.8333 21.2308H3.16667V5.30769H15.8333V21.2308ZM7.91667 9.73077V16.8077C7.91667 17.0423 7.83326 17.2673 7.68479 17.4332C7.53633 17.5991 7.33496 17.6923 7.125 17.6923C6.91504 17.6923 6.71367 17.5991 6.56521 17.4332C6.41674 17.2673 6.33333 17.0423 6.33333 16.8077V9.73077C6.33333 9.49615 6.41674 9.27115 6.56521 9.10525C6.71367 8.93935 6.91504 8.84615 7.125 8.84615C7.33496 8.84615 7.53633 8.93935 7.68479 9.10525C7.83326 9.27115 7.91667 9.49615 7.91667 9.73077ZM12.6667 9.73077V16.8077C12.6667 17.0423 12.5833 17.2673 12.4348 17.4332C12.2863 17.5991 12.085 17.6923 11.875 17.6923C11.665 17.6923 11.4637 17.5991 11.3152 17.4332C11.1667 17.2673 11.0833 17.0423 11.0833 16.8077V9.73077C11.0833 9.49615 11.1667 9.27115 11.3152 9.10525C11.4637 8.93935 11.665 8.84615 11.875 8.84615C12.085 8.84615 12.2863 8.93935 12.4348 9.10525C12.5833 9.27115 12.6667 9.49615 12.6667 9.73077Z" fill="#FF4D4D"/>
</svg>
