<svg width="25" height="25" viewBox="0 0 25 25" fill="none" xmlns="http://www.w3.org/2000/svg">
<path fill-rule="evenodd" clip-rule="evenodd" d="M1.17871 12.5281V12.6174C1.18937 15.3028 2.16234 17.7613 3.77067 19.6658C4.23586 20.2167 4.75421 20.7212 5.31779 21.1715C5.88502 21.6247 6.49808 22.0229 7.1489 22.3581C8.08142 22.8384 9.09146 23.1893 10.1553 23.3871C10.7702 23.5014 11.403 23.5646 12.0492 23.572C12.0923 23.5725 12.1354 23.5728 12.1786 23.5728C15.8681 23.5728 19.1334 21.7563 21.1289 18.969C21.5468 18.3852 21.909 17.7589 22.2078 17.0977C22.8315 15.7176 23.1786 14.1857 23.1786 12.5728C23.1786 9.31254 21.7603 6.38359 19.507 4.36928C18.9851 3.90273 18.4184 3.48524 17.8142 3.12407C16.166 2.1389 14.2384 1.57275 12.1786 1.57275C12.0667 1.57275 11.9552 1.57443 11.844 1.57775C10.1772 1.62754 8.60348 2.04817 7.20261 2.75995C6.24956 3.24419 5.3765 3.86321 4.60853 4.59189C3.89531 5.26862 3.27272 6.03995 2.76087 6.88577C2.39979 7.48244 2.09382 8.11618 1.85001 8.77994C1.42056 9.94906 1.18394 11.2113 1.17871 12.5281ZM20.6599 15.5913C20.9958 14.6477 21.1786 13.6316 21.1786 12.5728C21.1786 10.1154 20.1938 7.88809 18.5973 6.26395C17.7762 7.62674 16.6935 8.75699 15.4455 9.61965C15.9138 10.8354 16.1673 12.133 16.1832 13.4505C16.948 13.6212 17.7062 13.8767 18.4456 14.2216C19.2528 14.5979 19.9928 15.0598 20.6599 15.5913ZM16.02 15.4682C16.5539 15.6049 17.0827 15.7928 17.6004 16.0342C18.4007 16.4074 19.1204 16.8833 19.751 17.4389C18.2475 19.7736 15.6938 21.368 12.7575 21.5544C13.7304 20.6312 14.5496 19.5133 15.1507 18.2241C15.5696 17.3259 15.8567 16.4 16.02 15.4682ZM14.1751 13.1946C14.137 12.3109 13.9685 11.4411 13.68 10.6135C10.8674 11.8726 7.54455 11.9493 4.53254 10.5447C4.19122 10.3856 3.8619 10.2111 3.54503 10.0226C3.30658 10.8311 3.17862 11.687 3.17862 12.5728C3.17862 14.5189 3.79634 16.3208 4.84641 17.793C7.00909 14.7603 10.5472 13.0715 14.1751 13.1946ZM6.22572 19.3229C7.95129 16.6317 10.9501 15.111 14.0372 15.1919C13.9017 15.9313 13.6706 16.6658 13.3381 17.3789C12.5564 19.0553 11.324 20.3777 9.85256 21.2693C8.48914 20.9055 7.25312 20.2297 6.22572 19.3229ZM12.1786 3.57275C13.9633 3.57275 15.6266 4.09222 17.0257 4.98819C16.39 6.12114 15.538 7.06885 14.5467 7.80332C13.5259 6.14348 12.0539 4.73708 10.2057 3.78968C10.8406 3.64767 11.5009 3.57275 12.1786 3.57275ZM8.9849 5.41857C10.6249 6.18331 11.9262 7.37934 12.8166 8.80863C10.5251 9.81929 7.82593 9.8737 5.37777 8.73211C5.01255 8.5618 4.66412 8.37011 4.33329 8.15921C5.09236 6.81281 6.188 5.68142 7.50605 4.87921C8.00543 5.01333 8.50009 5.1925 8.9849 5.41857Z" fill="#7C76BB"/>
</svg>
