<svg width="25" height="25" viewBox="0 0 25 25" fill="none" xmlns="http://www.w3.org/2000/svg">
<path fill-rule="evenodd" clip-rule="evenodd" d="M12.1787 7.57275C9.41729 7.57275 7.17871 9.81133 7.17871 12.5728C7.17871 15.3342 9.41729 17.5728 12.1787 17.5728C14.9401 17.5728 17.1787 15.3342 17.1787 12.5728C17.1787 9.81133 14.9401 7.57275 12.1787 7.57275ZM9.17871 12.5728C9.17871 14.2296 10.5219 15.5728 12.1787 15.5728C13.8356 15.5728 15.1787 14.2296 15.1787 12.5728C15.1787 10.9159 13.8356 9.57275 12.1787 9.57275C10.5219 9.57275 9.17871 10.9159 9.17871 12.5728Z" fill="#7C76BB"/>
<path d="M18.1787 5.57275C17.6264 5.57275 17.1787 6.02047 17.1787 6.57275C17.1787 7.12504 17.6264 7.57275 18.1787 7.57275C18.731 7.57275 19.1787 7.12504 19.1787 6.57275C19.1787 6.02047 18.731 5.57275 18.1787 5.57275Z" fill="#7C76BB"/>
<path fill-rule="evenodd" clip-rule="evenodd" d="M5.17871 1.57275C2.96957 1.57275 1.17871 3.36362 1.17871 5.57275V19.5728C1.17871 21.7819 2.96957 23.5728 5.17871 23.5728H19.1787C21.3878 23.5728 23.1787 21.7819 23.1787 19.5728V5.57275C23.1787 3.36362 21.3878 1.57275 19.1787 1.57275H5.17871ZM19.1787 3.57275H5.17871C4.07414 3.57275 3.17871 4.46818 3.17871 5.57275V19.5728C3.17871 20.6773 4.07414 21.5728 5.17871 21.5728H19.1787C20.2833 21.5728 21.1787 20.6773 21.1787 19.5728V5.57275C21.1787 4.46818 20.2833 3.57275 19.1787 3.57275Z" fill="#7C76BB"/>
</svg>
