<svg width="20" height="23" viewBox="0 0 20 23" fill="none" xmlns="http://www.w3.org/2000/svg">
<path d="M16.1281 16.5453L11.5315 21.1418C11.3305 21.3431 11.0918 21.5027 10.829 21.6116C10.5663 21.7205 10.2846 21.7766 10.0002 21.7766C9.71579 21.7766 9.43415 21.7205 9.1714 21.6116C8.90865 21.5027 8.66995 21.3431 8.46893 21.1418L3.87126 16.5453C2.65925 15.3332 1.83388 13.7889 1.49951 12.1078C1.16514 10.4266 1.33679 8.68406 1.99277 7.10046C2.64874 5.51686 3.75957 4.16334 5.18478 3.21105C6.61 2.25877 8.28559 1.75049 9.99968 1.75049C11.7138 1.75049 13.3894 2.25877 14.8146 3.21105C16.2398 4.16334 17.3506 5.51686 18.0066 7.10046C18.6626 8.68406 18.8342 10.4266 18.4998 12.1078C18.1655 13.7889 17.3401 15.3332 16.1281 16.5453V16.5453Z" stroke="#78AAD5" stroke-width="2" stroke-linecap="round" stroke-linejoin="round"/>
<path d="M13.25 10.4165C13.25 11.2785 12.9076 12.1051 12.2981 12.7146C11.6886 13.3241 10.862 13.6665 10 13.6665C9.13805 13.6665 8.3114 13.3241 7.7019 12.7146C7.09241 12.1051 6.75 11.2785 6.75 10.4165C6.75 9.55455 7.09241 8.7279 7.7019 8.11841C8.3114 7.50891 9.13805 7.1665 10 7.1665C10.862 7.1665 11.6886 7.50891 12.2981 8.11841C12.9076 8.7279 13.25 9.55455 13.25 10.4165V10.4165Z" stroke="#78AAD5" stroke-width="2" stroke-linecap="round" stroke-linejoin="round"/>
</svg>
