<svg width="27" height="22" viewBox="0 0 27 22" fill="none" xmlns="http://www.w3.org/2000/svg">
<path d="M21.6281 12.2504L14.6176 19.1143L14.6175 19.1143C14.3785 19.3484 14.2432 19.667 14.2432 20.0004C14.2432 20.3338 14.3785 20.6524 14.6175 20.8865C14.8564 21.1205 15.1793 21.251 15.515 21.251C15.8506 21.251 16.1735 21.1205 16.4124 20.8865L25.603 11.8866C25.603 11.8866 25.6031 11.8866 25.6031 11.8865C25.7215 11.7707 25.8157 11.6329 25.8801 11.4808L25.6498 11.3834L25.8801 11.4808C25.9445 11.3287 25.9777 11.1654 25.9777 11.0004C25.9777 10.8354 25.9445 10.6722 25.8801 10.52L25.6498 10.6175L25.8801 10.52C25.8157 10.3679 25.7215 10.2301 25.6031 10.1143C25.6031 10.1143 25.603 10.1142 25.603 10.1142L16.4124 1.1143C16.1735 0.880371 15.8506 0.749863 15.515 0.749863C15.1793 0.749863 14.8564 0.880371 14.6175 1.1143C14.3785 1.3484 14.2432 1.66704 14.2432 2.00042C14.2432 2.3338 14.3785 2.65244 14.6175 2.88654L14.6176 2.88655L21.6281 9.75042L2.23945 9.75042C1.90398 9.75042 1.58123 9.88087 1.34245 10.1147C1.10349 10.3487 0.968262 10.6672 0.968262 11.0004C0.968262 11.3337 1.10349 11.6522 1.34245 11.8861C1.58123 12.12 1.90398 12.2504 2.23945 12.2504L21.6281 12.2504Z" fill="white" stroke="white" stroke-width="0.5"/>
</svg>
