<svg width="25" height="21" viewBox="0 0 25 21" fill="none" xmlns="http://www.w3.org/2000/svg">
<path d="M23.1787 1.57256C22.2211 2.24803 21.1608 2.76467 20.0387 3.10256C19.4365 2.41007 18.636 1.91925 17.7457 1.69648C16.8554 1.47372 15.9182 1.52975 15.0608 1.85701C14.2034 2.18427 13.4672 2.76696 12.9517 3.52627C12.4362 4.28559 12.1664 5.18489 12.1787 6.10256V7.10256C10.4213 7.14812 8.67999 6.75837 7.10972 5.968C5.53945 5.17763 4.18903 4.01119 3.17871 2.57256C3.17871 2.57256 -0.821289 11.5726 8.17871 15.5726C6.11924 16.9705 3.66587 17.6715 1.17871 17.5726C10.1787 22.5726 21.1787 17.5726 21.1787 6.07256C21.1778 5.79401 21.151 5.51615 21.0987 5.24256C22.1193 4.23605 22.8395 2.96527 23.1787 1.57256V1.57256Z" stroke="#7C76BB" stroke-width="2" stroke-linecap="round" stroke-linejoin="round"/>
</svg>
